<?xml version="1.0" encoding="utf-8"?>
<!-- Generator: Adobe Illustrator 18.1.0, SVG Export Plug-In . SVG Version: 6.00 Build 0)  -->
<svg version="1.1" id="Layer_1" xmlns="http://www.w3.org/2000/svg" xmlns:xlink="http://www.w3.org/1999/xlink" x="0px" y="0px"
	 viewBox="0 0 500 500" enable-background="new 0 0 500 500" xml:space="preserve">
<g>
	<g>
		<path fill="#010101" d="M33.2,376.9c0,1,0.7,2.2,1.6,2.8l207.2,120c0.9,0.5,1.6,0.1,1.6-0.9V265.3c0-1-0.7-2.2-1.6-2.8L34.8,142
			c-0.9-0.5-1.6-0.1-1.6,0.9C33.2,142.9,33.2,376.9,33.2,376.9z M138.3,302.8c10,0,18.1,8.1,18.1,18.1c0,10-8.1,18.1-18.1,18.1
			c-10,0-18.1-8.1-18.1-18.1C120.4,310.8,128.4,302.8,138.3,302.8z"/>
	</g>
	<g>
		<path fill="#010101" d="M258,262.4c-0.9,0.5-1.6,1.7-1.6,2.8v233.5c0,1,0.7,1.5,1.6,0.9l207.2-120c0.9-0.5,1.6-1.7,1.6-2.8V142.9
			c0-1-0.7-1.5-1.6-0.9L258,262.4z M319.2,409.7c-10,0-18.1-8.1-18.1-18.1s8.1-18.1,18.1-18.1c10,0,18.1,8.1,18.1,18.1
			C337.3,401.5,329.3,409.7,319.2,409.7z M413.4,263.7c-10,0-18.1-8.1-18.1-18.1c0-10,8.1-18.1,18.1-18.1s18.1,8.1,18.1,18.1
			C431.4,255.5,423.3,263.7,413.4,263.7z"/>
	</g>
	<g>
		<path fill="#010101" d="M251.6,0.4c-0.9-0.5-2.3-0.5-3.2,0L38.3,125.5c-0.9,0.5-0.9,1.4,0,1.8l210.1,123c0.9,0.5,2.3,0.5,3.2,0
			l210.1-123c0.9-0.5,0.9-1.4,0-1.8L251.6,0.4z M157.1,143.4c-10,0-18.1-8.1-18.1-18.1c0-10,8.1-18.1,18.1-18.1
			c10,0,18.1,8.1,18.1,18.1C175,135.3,167,143.4,157.1,143.4z M250,199.2c-10,0-18.1-8.1-18.1-18.1S240,163,250,163
			c10,0,18.1,8.1,18.1,18.1C268.1,191.2,260,199.2,250,199.2z M250,87.6c-10,0-18.1-8.1-18.1-18.1S240,51.4,250,51.4
			c10,0,18.1,8.1,18.1,18.1S260,87.6,250,87.6z M342.9,143.4c-10,0-18.1-8.1-18.1-18.1c0-10,8.1-18.1,18.1-18.1s18.1,8.1,18.1,18.1
			C361,135.3,352.9,143.4,342.9,143.4z"/>
	</g>
</g>
</svg>
